
<svg xmlns="http://www.w3.org/2000/svg" version="1.1" xmlns:xlink="http://www.w3.org/1999/xlink" preserveAspectRatio="none" x="0px" y="0px" width="1016px" height="370px" viewBox="0 0 1016 370">
<defs>
<g id="Layer1_0_MEMBER_0_FILL">
<path fill="#169199" stroke="none" d="
M 714.8 136.5
Q 708.5 127.3 709.8 104.9 683.3 47.5 767.3 0 599.3 7.7 607.2 145.5 620.4 56.3 705.2 24.5 656.75 92.7 714.8 136.5
M 758.85 14.9
L 741.25 31.4
Q 816.95 24.75 841.25 62.8 747.15 33.05 723.25 91.15 706.3 135.55 750.85 160.9 781.75 181.25 835 179.2 782.8 169.3 757.35 149.75 725.5 123.85 741.7 91.5 752.5 71 784.4 68.9 832 65.75 868.8 85.75 843.05 10.1 758.85 14.9
M 829.35 152.85
Q 885.4 154.45 912.85 173.9 881.35 135.3 822.45 135.2 780.25 135.3 748.15 127.1 757.9 141.7 772.65 149.35 777.8 152.8 829.35 152.85 Z"/>
</g>

<g id="Layer1_0_MEMBER_1_FILL">
<path fill="#424143" stroke="none" d="
M 103.1 251.65
Q 117.74921875 232.9375 101.2 217.15 84.6 209.15 61.7 209.15 36.7 209.15 21.4 221.45 5.15 234.35 5.15 256.95 5.15 275.6 17.45 287 27.75 296.7 49.6 303.65 67.6 309.45 71.4 311.55 79.45 316.25 79.45 325.65 79.45 341.45 58.05 341.45 47.45 341.45 33.35 335.5 20.9 330.35 14.85 324.75
L 0 350.55
Q 24.85 369.8 57.75 369.8 84.6 369.8 100.85 357.5 117.95 344.6 117.95 321.85 117.95 300.8 102.2 288.8 91.6 280.6 65.8 272.85 43.05 266.2 43.05 253 43.05 238 64 238 84.75 238 103.1 251.65
M 158.85 230.85
Q 154.15 211.9 133.65 211.9 126.85 211.9 115.6 214.8
L 159.45 365.1 195.55 365.1 224.05 269.1 252.85 365.1 288.65 365.1 332.15 216 296.35 216 271.8 317 241.15 216 210.7 216 179.9 317 158.85 230.85
M 471.2 277.9
Q 471.2 248.3 454.85 229.35 437.25 209.15 407.25 209.15 372.95 209.15 352.5 232.35 332.8 254.65 332.8 289.85 332.8 325.65 350.05 346.6 369.35 369.8 406.3 369.8 426.5 369.8 444.25 360.7 458.5 353.4 466.65 343.1
L 447.4 322.5
Q 431.2 341.75 408.6 341.75 391.15 341.75 381.45 330.2 372.2 318.85 371.9 298.95
L 470.9 298.95 471.2 277.9
M 405.1 236.45
Q 432.4 236.45 434.05 272.25
L 373.4 272.25
Q 376.45 236.45 405.1 236.45
M 589.75 169.4
Q 589.75 142.7 551.85 142.7
L 551.85 365.1 589.75 365.1 589.75 169.4
M 526.9 169.4
Q 526.9 142.7 489 142.7
L 489 365.1 526.9 365.1 526.9 169.4
M 667.55 244.95
Q 676.65 239.05 685.45 239.05 710.65 239.05 710.65 269.1
L 710.65 365.1 748.85 365.1 748.85 266.95
Q 748.85 209.15 696.2 209.15 667.4 209.15 651.5 230.85 646.95 219.35 638.45 215.25 631.5 211.9 616.75 211.9
L 616.75 365.1 655 365.1 655 257.55
Q 659.2 250.25 667.55 244.95
M 786.3 232.35
Q 766.6 254.65 766.6 289.85 766.6 325.65 783.85 346.6 803.15 369.8 840.1 369.8 860.3 369.8 878.05 360.7 892.3 353.4 900.45 343.1
L 881.2 322.5
Q 865 341.75 842.4 341.75 824.95 341.75 815.25 330.2 806 318.85 805.7 298.95
L 904.7 298.95 905 277.9
Q 905 248.3 888.65 229.35 871.05 209.15 841.05 209.15 806.75 209.15 786.3 232.35
M 838.9 236.45
Q 866.2 236.45 867.85 272.25
L 807.2 272.25
Q 810.25 236.45 838.9 236.45
M 1002.55 242.4
L 1002.55 216 966.05 216 966.05 182.45
Q 966.05 155.75 927.8 155.75
L 927.8 216 904.15 216 904.15 242.4 927.8 242.4 927.8 326.85
Q 927.8 369.8 971.65 369.8 994.55 369.8 1015.6 356.75
L 1005.75 332.5
Q 992.4 341.15 980.6 341.15 966.05 341.15 966.05 323.85
L 966.05 242.4 1002.55 242.4 Z"/>
</g>
</defs>

<g transform="matrix( 1, 0, 0, 1, 0,0) ">
<use xlink:href="#Layer1_0_MEMBER_0_FILL"/>
</g>

<g transform="matrix( 1, 0, 0, 1, 0,0) ">
<use xlink:href="#Layer1_0_MEMBER_1_FILL"/>
</g>
</svg>
