<?xml version="1.0" encoding="utf-8"?>
<!-- Svg Vector Icons : http://www.onlinewebfonts.com/icon -->
<!DOCTYPE svg PUBLIC "-//W3C//DTD SVG 1.1//EN" "http://www.w3.org/Graphics/SVG/1.1/DTD/svg11.dtd">
<svg version="1.1" xmlns="http://www.w3.org/2000/svg" xmlns:xlink="http://www.w3.org/1999/xlink" x="0px" y="0px" viewBox="0 0 1000 1000" enable-background="new 0 0 1000 1000" xml:space="preserve">
<metadata> Svg Vector Icons : http://www.onlinewebfonts.com/icon </metadata>
<g><g transform="translate(0.000000,511.000000) scale(0.100000,-0.100000)"><path d="M3797.3,4997.3c-285.4-75.6-544-356.2-687.9-748.9c-29.3-85.4-87.8-356.2-129.3-602.5c-41.5-244-80.5-473.3-87.8-509.9l-12.2-65.9l-707.5-7.3l-709.9-7.3l-82.9-90.3c-92.7-104.9-109.8-214.7-46.3-336.6c80.5-156.1-163.4-146.4,3671.4-146.4s3590.9-9.8,3671.5,146.4c63.4,122,46.4,231.7-46.4,336.6l-82.9,90.3l-709.9,7.3c-390.3,4.9-709.9,12.2-709.9,22c0,56.1-129.3,780.6-158.6,890.4c-90.3,334.2-263.5,661.1-441.5,834.3c-153.7,148.8-263.5,197.6-461.1,195.2c-153.7,0-190.3-9.8-375.7-107.3c-112.2-58.5-309.8-183-439.1-275.7c-214.7-156.1-236.7-168.3-285.4-136.6c-29.3,19.5-168.3,112.2-307.4,207.4c-139,95.1-314.7,202.5-390.3,236.6C4121.7,4999.7,3914.4,5029,3797.3,4997.3z"/><path d="M3214.2,2106.5c-114.7-43.9-229.3-146.4-273.2-251.3c-24.4-56.1-34.2-190.3-34.2-458.6c0-324.4,7.3-392.8,46.3-470.8c112.2-219.6,202.5-248.8,775.8-248.8c505,0,583,14.6,753.8,129.3c217.1,143.9,326.9,405,326.9,768.4c0,265.9-73.2,412.3-256.2,512.3C4451,2145.5,3360.6,2160.1,3214.2,2106.5z"/><path d="M5602.5,2128.4c-12.2-4.9-53.7-14.6-90.3-22c-90.2-19.5-207.4-124.4-263.5-236.6c-36.6-70.7-48.8-141.5-48.8-295.2c0-409.8,131.7-678.2,400.1-819.7c122-63.4,134.2-65.9,641.6-73.2c473.3-7.3,522-4.9,609.9,39c107.3,56.1,156.1,104.9,212.2,219.6c36.6,68.3,41.4,146.4,34.1,492.8l-7.3,409.8l-75.6,95.2c-151.3,185.4-170.8,190.3-814.8,195.2C5885.5,2135.7,5617.1,2133.3,5602.5,2128.4z"/><path d="M2353.1,496.4l-68.3-58.5l-7.3-902.6l-7.3-900.2l-139-56.1c-683.1-275.7-1102.7-590.4-1283.2-953.8c-124.4-253.7-141.5-400.1-131.7-1210c7.3-670.9,9.7-707.5,61-802.6c75.6-143.9,192.7-251.3,348.8-324.5l134.2-63.4l1727.2-7.3l1724.7-7.3v2010.1v2007.7l-712.3,436.7C2665.3,479.3,2536,554.9,2479.9,554.9C2448.2,554.9,2389.7,528.1,2353.1,496.4z"/><path d="M7434.5,518.3c-39-22-536.7-319.6-1105.1-663.5L5297.6-772.1v-2007.7V-4790l1727.2,7.3l1724.7,7.3l134.2,63.4c163.4,75.6,283,192.7,351.3,339.1c48.8,104.9,51.2,148.8,51.2,902.6c0,778.2,0,795.3-58.6,956.3c-78,217.1-265.9,461.1-478.1,622.1c-170.8,131.7-541.6,331.8-846.5,458.6l-165.9,68.3v819.7c0,451.3-12.2,863.6-24.4,917.2c-22,100-97.6,183-168.3,183C7522.4,554.9,7473.6,537.8,7434.5,518.3z"/></g></g>
</svg>