<?xml version="1.0" encoding="utf-8"?>
<!-- Svg Vector Icons : http://www.onlinewebfonts.com/icon -->
<!DOCTYPE svg PUBLIC "-//W3C//DTD SVG 1.1//EN" "http://www.w3.org/Graphics/SVG/1.1/DTD/svg11.dtd">
<svg version="1.1" xmlns="http://www.w3.org/2000/svg" xmlns:xlink="http://www.w3.org/1999/xlink" x="0px" y="0px" viewBox="0 0 1000 1000" enable-background="new 0 0 1000 1000" xml:space="preserve">
<metadata> Svg Vector Icons : http://www.onlinewebfonts.com/icon </metadata>
<g><g><path d="M899.3,672.4v-36.3V418.3V200.6c0-19.9-16.3-36.3-36.3-36.3h-726c-20,0-36.4,16.3-36.4,36.3v217.8v217.8v36.3L10,781.3c0,30,24.4,54.4,54.4,54.4h871.2c30,0,54.4-24.4,54.4-54.4L899.3,672.4z M572.7,817.7H427.5c-5,0-9.1-4-9.1-9.1c0-5.1,4.1-9.1,9.1-9.1h145.2c5,0,9.1,4,9.1,9.1C581.7,813.6,577.7,817.7,572.7,817.7z M350.4,781.4l27.7-33.2h243.8l27.7,33.2H350.4z M848.2,608.2c0,17.5-14.3,31.7-31.7,31.7H183.5c-17.4,0-31.6-14.3-31.6-31.7V228.5c0-17.5,14.3-31.7,31.6-31.7h228.2l128.9,67L371.2,447l212.2,162.7L495,387.4l147.2-70.8l-45.7-119.8h220.1c17.4,0,31.7,14.3,31.7,31.7V608.2L848.2,608.2z"/></g><g></g><g></g><g></g><g></g><g></g><g></g><g></g><g></g><g></g><g></g><g></g><g></g><g></g><g></g><g></g></g>
</svg>